<?xml version="1.0" encoding="UTF-8"?>
<svg width="613px" height="181px" viewBox="0 0 613 181" version="1.1" xmlns="http://www.w3.org/2000/svg" xmlns:xlink="http://www.w3.org/1999/xlink">
    <!-- Generator: Sketch 52.3 (67297) - http://www.bohemiancoding.com/sketch -->
    <title>Group 17</title>
    <desc>Created with Sketch.</desc>
    <defs>
        <polygon id="path-1" points="0.438099653 0.534992301 67.9437602 0.534992301 67.9437602 100 0.438099653 100"></polygon>
        <polygon id="path-3" points="0.7143 0.148649164 62.752 0.148649164 62.752 72.6479629 0.7143 72.6479629"></polygon>
    </defs>
    <g id="Brand" stroke="none" stroke-width="1" fill="none" fill-rule="evenodd">
        <g id="Group-17" transform="translate(0.000000, -1.000000)">
            <polygon id="Fill-1" fill="#001547" points="228.347 70.2153 228.412 95.8813 272.639 95.7683 272.679 111.2833 228.452 111.3973 228.56 153.3033 211.16 153.3483 210.907 54.7453 274.418 54.5823 274.458 70.0973"></polygon>
            <g id="Group-16" transform="translate(0.000000, 0.489000)">
                <path d="M296.3109,110.2996 L329.9529,110.2136 C329.4949,101.2246 322.9539,95.1506 313.6729,95.1746 C304.2479,95.1986 296.7249,102.0326 296.3109,110.2996 Z M346.6959,136.8526 C343.6639,141.6456 334.4149,154.2836 314.2589,154.3356 C293.8139,154.3876 279.8569,139.9226 279.7989,117.5926 C279.7459,96.2776 294.3539,82.0286 313.6399,81.9796 C335.6799,81.9226 346.3049,97.1206 346.3589,118.2916 C346.3619,119.4516 346.2219,121.3376 346.2249,122.4976 L295.9079,122.6266 C297.0919,132.0486 302.9139,140.1536 315.0929,140.1216 C327.5639,140.0906 333.0519,131.6656 335.2189,128.1816 L346.6959,136.8526 Z" id="Fill-2" fill="#001547"></path>
                <path d="M373.5267,83.4207 L373.5527,93.5707 C374.8487,90.0877 380.3377,81.6637 393.6777,81.6297 C394.5477,81.6277 394.8387,81.6267 396.2887,81.7677 L396.3317,98.5877 C394.7357,98.4467 393.1407,98.3067 391.6907,98.3097 C382.8447,98.3327 377.9227,101.5347 375.4737,107.7767 C374.1777,111.2597 373.6087,115.3217 373.6247,121.4117 L373.7037,152.4427 L357.1727,152.4847 L356.9967,83.4627 L373.5267,83.4207 Z" id="Fill-4" fill="#001547"></path>
                <g id="Group-8" transform="translate(400.000000, 81.000000)">
                    <mask id="mask-2" fill="white">
                        <use xlink:href="#path-1"></use>
                    </mask>
                    <g id="Clip-7"></g>
                    <path d="M34.4583,14.7351 C23.2923,14.7631 16.9323,22.4651 16.9673,36.3851 C17.0023,50.1611 23.4023,57.6841 34.5673,57.6561 C45.5883,57.6281 52.0933,49.6361 52.0593,36.2961 C52.0243,22.9561 45.4783,14.7071 34.4583,14.7351 Z M18.9503,74.6621 C19.6913,81.0401 22.6073,87.1241 34.4983,87.0931 C46.9683,87.0611 51.4503,81.9741 51.4173,68.9231 L51.4003,62.6881 L51.2563,62.6881 C48.9433,65.8851 43.1583,71.5551 30.9783,71.5871 C12.2723,71.6341 0.4923,58.0341 0.4383,37.0081 C0.3833,15.2581 11.6553,0.5841 30.6503,0.5351 C40.2213,0.5101 47.4823,4.8411 51.2663,9.7621 L51.2463,2.2211 L67.7763,2.1791 L67.9433,67.2871 C67.9623,74.6821 67.3953,79.4681 65.8113,83.8221 C61.4903,95.4341 50.9163,99.9571 33.9513,100.0001 C13.2153,100.0521 2.8963,90.7981 2.2783,76.0101 L18.9503,74.6621 Z" id="Fill-6" fill="#001547" mask="url(#mask-2)"></path>
                </g>
                <path d="M481.5492,83.1443 L498.0792,83.1013 L498.1742,119.7883 C498.1872,124.7173 498.3442,129.5023 499.9472,133.1243 C501.5522,136.7463 504.7482,139.2023 510.5492,139.1873 C520.8442,139.1613 525.3192,131.1733 525.2902,120.0083 L525.1952,83.0323 L541.7262,82.9903 L541.9022,152.0123 L525.3722,152.0543 L525.3502,143.2083 C522.0292,149.0183 514.6472,153.8223 504.7852,153.8473 C497.8252,153.8653 491.8752,151.7063 487.8032,147.2213 C483.4412,142.3013 481.6882,137.5213 481.6502,122.2953 L481.5492,83.1443 Z" id="Fill-9" fill="#001547"></path>
                <g id="Group-13" transform="translate(550.000000, 81.000000)">
                    <mask id="mask-4" fill="white">
                        <use xlink:href="#path-3"></use>
                    </mask>
                    <g id="Clip-12"></g>
                    <path d="M50.7913,21.4148 C45.9933,16.7868 39.3143,13.6138 31.3403,13.6348 C24.8143,13.6508 20.0353,15.9828 20.0473,20.4778 C20.0603,25.4088 24.8473,26.4108 34.5673,28.4168 L42.8383,30.2798 C53.2843,32.7198 62.7193,36.6098 62.7523,49.2258 C62.7923,65.0308 48.4563,72.6078 32.6513,72.6478 C16.1203,72.6898 4.9343,64.5998 0.7143,58.6648 L11.8533,48.7748 C15.7833,53.9848 22.4663,59.0438 33.0513,59.0168 C41.3163,58.9948 46.0943,56.0838 46.0813,51.1528 C46.0693,46.3678 42.1523,45.5078 35.4783,44.0748 L25.1773,41.9258 C13.1353,39.3468 3.6963,34.2958 3.6643,21.6808 C3.6253,6.6008 18.2553,0.1828 31.4503,0.1488 C45.2263,0.1138 55.8273,6.1768 60.3353,11.0948 L50.7913,21.4148 Z" id="Fill-11" fill="#001547" mask="url(#mask-4)"></path>
                </g>
                <path d="M77.0121,34.659 C73.8111,35.516 70.5211,33.617 69.6631,30.417 C68.8061,27.216 70.7051,23.926 73.9061,23.068 C77.1071,22.211 80.3971,24.11 81.2541,27.31 C82.1121,30.512 80.2121,33.802 77.0121,34.659 Z M125.9941,4.96 C125.1361,1.759 121.8461,-0.141 118.6451,0.718 L64.8601,15.138 C62.8101,15.688 60.6261,15.401 58.7881,14.34 L46.3291,7.146 C44.5771,6.136 42.3901,6.279 40.7851,7.51 L39.0381,8.85 L53.4881,62.777 C54.5971,66.919 53.4131,71.337 50.3821,74.369 L18.7531,105.997 C17.1541,107.597 14.6781,107.923 12.7181,106.792 L7.2911,103.658 C5.5391,102.647 3.3521,102.791 1.7471,104.021 L0.0001,105.362 L4.5961,122.514 L7.8311,134.589 L7.9111,134.567 C8.9281,138.547 10.9391,142.313 13.9831,145.469 C18.9031,150.57 25.4441,153.121 31.9851,153.122 L67.3431,153.122 L61.1511,130.013 L70.8101,127.426 L76.1071,147.192 C77.0441,150.689 80.2131,153.122 83.8341,153.122 L98.4011,153.122 L90.1281,122.249 L99.7871,119.661 L107.1651,147.192 C108.1021,150.689 111.2721,153.122 114.8921,153.122 L129.4591,153.121 L103.8361,57.495 C102.9781,54.294 104.8781,51.004 108.0781,50.146 L109.0451,49.888 C123.9821,45.885 132.8461,30.531 128.8431,15.595 L125.9941,4.96 Z" id="Fill-14" fill="#0036D0"></path>
            </g>
        </g>
    </g>
</svg>